<?xml version="1.0" encoding="UTF-8" standalone="no"?>
<!DOCTYPE svg PUBLIC "-//W3C//DTD SVG 1.1//EN" "http://www.w3.org/Graphics/SVG/1.1/DTD/svg11.dtd">
<svg width="100%" height="100%" viewBox="0 0 1920 1080" version="1.1" xmlns="http://www.w3.org/2000/svg" xmlns:xlink="http://www.w3.org/1999/xlink" xml:space="preserve" xmlns:serif="http://www.serif.com/" style="fill-rule:evenodd;clip-rule:evenodd;stroke-linejoin:round;stroke-miterlimit:2;">
    <path id="cloud" d="M1018.89,351.035C1036.29,364.1 1046.23,379.201 1046.23,395.283C1046.23,444.881 951.675,485.148 835.206,485.148C718.738,485.148 624.18,444.881 624.18,395.283C624.18,374.021 641.557,354.474 670.588,339.079C670.277,337.143 670.118,335.18 670.118,333.193C670.118,301.238 711.225,275.295 761.856,275.295C777.423,275.295 792.09,277.748 804.938,282.073C826.335,255.66 861.531,238.41 901.292,238.41C966.45,238.41 1019.35,284.738 1019.35,341.8C1019.35,344.912 1019.19,347.993 1018.89,351.035Z" style="fill:rgb(235,235,235);"/>
</svg>
