<?xml version="1.0" encoding="UTF-8" standalone="no"?>
<!DOCTYPE svg PUBLIC "-//W3C//DTD SVG 1.1//EN" "http://www.w3.org/Graphics/SVG/1.1/DTD/svg11.dtd">
<svg width="100%" height="100%" viewBox="0 0 1920 1080" version="1.1" xmlns="http://www.w3.org/2000/svg" xmlns:xlink="http://www.w3.org/1999/xlink" xml:space="preserve" xmlns:serif="http://www.serif.com/" style="fill-rule:evenodd;clip-rule:evenodd;stroke-linecap:round;stroke-linejoin:round;stroke-miterlimit:1.5;">
    <g transform="matrix(1.47391,0.0199654,-0.00567103,0.375126,-141.572,-74.2215)">
        <path d="M944.762,380.236C1021.62,349.861 1106.02,333.071 1194.57,333.071C1309.51,333.071 1417.47,361.364 1511,410.937L1511,1199.51C1399.48,1063.84 1267.23,965.508 1122.6,917.154C1098.75,689.858 1033.28,497.295 944.762,380.236Z" style="fill:rgb(125,226,136);"/>
    </g>
    <g transform="matrix(1.43177,0,0,0.375164,-99.8119,-54.7358)">
        <path d="M687.676,564.215C746.429,494.298 821.195,436.805 906.752,396.647C977.979,533.874 1028.59,712.549 1046.32,896.579C1012.3,889.566 977.715,885.285 942.655,883.885C884.046,747.393 795.106,635.721 687.676,564.215Z" style="fill:rgb(125,226,136);"/>
    </g>
    <g transform="matrix(2.78447,0,0,2.22301,-2912.2,-512.756)">
        <path d="M1494.74,355.205C1464.6,332.17 1418.87,313.324 1363.63,301.256C1318.97,318.697 1292.31,340.72 1292.31,364.649C1292.31,367.729 1292.75,370.778 1293.62,373.79C1314.52,369.446 1336.17,365.804 1358.43,362.923C1397.79,357.831 1439.09,355.119 1481.65,355.119C1486.03,355.119 1490.39,355.148 1494.74,355.205Z" style="fill:rgb(96,203,108);stroke:rgb(96,203,108);stroke-width:0.4px;"/>
    </g>
    <g transform="matrix(2.78447,0,0,2.22301,-2912.2,-512.756)">
        <path d="M1043.36,491.054L1043.36,310.081C1093.82,295.285 1154.97,286.618 1220.84,286.618C1248.24,286.618 1274.82,288.118 1300.16,290.935C1243.65,312.265 1197.63,346.816 1178.3,387.347C1174.5,395.311 1171.89,403.175 1170.4,410.873C1117.4,432.721 1073.88,460.031 1043.36,491.054Z" style="fill:rgb(96,203,108);stroke:rgb(125,226,136);stroke-width:0.4px;"/>
    </g>
    <g transform="matrix(2.78447,0,0,2.22301,-2912.2,-512.756)">
        <path d="M1353.11,299.063C1356.65,299.767 1360.16,300.498 1363.63,301.256C1318.97,318.697 1292.31,340.72 1292.31,364.649C1292.31,367.729 1292.75,370.778 1293.62,373.79C1293.56,373.801 1293.51,373.812 1293.46,373.823C1275.61,377.535 1258.3,381.76 1241.6,386.459C1267.5,352.575 1307.28,321.608 1353.11,299.063Z" style="fill:rgb(96,203,108);stroke:rgb(96,203,108);stroke-width:0.4px;"/>
    </g>
    <g transform="matrix(1.05643,0,0,1,-36.1493,-404)">
        <path d="M717.715,539.994C766.099,544.531 812.759,550.605 857.264,558.062C736.462,608.18 631.625,677.019 563.358,752.345C496.888,768.123 434.105,786.309 375.69,806.618C379.61,789.504 386.49,772.022 396.502,754.318C447.455,664.218 568.761,587.411 717.715,539.994ZM444.958,716.84C446.395,711.332 448.065,705.871 449.962,700.46C452.154,704.412 454.488,708.35 456.96,712.271C452.929,713.773 448.928,715.296 444.958,716.84Z" style="stroke:black;stroke-width:0.97px;"/>
    </g>
    <g transform="matrix(1.05643,0,0,1.03972,-169.146,-427.002)">
        <path d="M1305.91,501.405C1322.78,499.213 1339.96,497.159 1357.42,495.248C1477.38,539.165 1566.12,611.408 1598.45,696.681C1564.47,693.536 1529.99,690.955 1495.06,688.962C1471.03,619.92 1402.44,552.888 1305.91,501.405Z"/>
    </g>
    <g transform="matrix(1.05643,0,0,1,-50.1493,-406)">
        <path d="M717.715,539.994C766.099,544.531 812.759,550.605 857.264,558.062C736.462,608.18 631.625,677.019 563.358,752.345C496.888,768.123 434.105,786.309 375.69,806.618C379.61,789.504 386.49,772.022 396.502,754.318C447.455,664.218 568.761,587.411 717.715,539.994ZM444.958,716.84C446.395,711.332 448.065,705.871 449.962,700.46C452.154,704.412 454.488,708.35 456.96,712.271C452.929,713.773 448.928,715.296 444.958,716.84Z" style="fill:rgb(195,105,72);stroke:rgb(195,105,72);stroke-width:0.97px;"/>
    </g>
    <g transform="matrix(1.05643,0,0,1,-50.1493,-406)">
        <path d="M717.715,539.994C766.099,544.531 812.759,550.605 857.264,558.062C736.462,608.18 631.625,677.019 563.358,752.345C496.888,768.123 434.105,786.309 375.69,806.618C379.61,789.504 386.49,772.022 396.502,754.318C447.455,664.218 568.761,587.411 717.715,539.994ZM444.958,716.84C446.395,711.332 448.065,705.871 449.962,700.46C452.154,704.412 454.488,708.35 456.96,712.271C452.929,713.773 448.928,715.296 444.958,716.84Z" style="fill:rgb(195,105,72);stroke:rgb(195,105,72);stroke-width:0.97px;"/>
    </g>
    <g transform="matrix(1.05643,0,0,1,-181.146,-407.333)">
        <path d="M1305.91,501.405C1322.78,499.213 1339.96,497.159 1357.42,495.248C1477.38,539.165 1566.12,611.408 1598.45,696.681C1564.47,693.536 1529.99,690.955 1495.06,688.962C1471.03,619.92 1402.44,552.888 1305.91,501.405Z" style="fill:rgb(195,105,72);"/>
    </g>
    <g transform="matrix(1.96192,0,0,5.49257,-2082.72,-550.259)">
        <path d="M1058,221.177L1058,205.572C1101.31,193.016 1163.08,181.963 1238.31,173.121C1228.12,188.16 1255.07,201.636 1308.75,210.54C1293.71,203.203 1290.22,194.126 1300.96,183.84C1308.25,176.864 1321.47,169.912 1339.36,163.239C1363.06,161.338 1387.62,159.628 1412.96,158.125C1413.05,158.136 1413.14,158.147 1413.23,158.159C1424.5,169.198 1485.06,178.996 1575.39,185.835C1607.94,193.202 1637.2,201.17 1662.81,209.528C1581.53,222.381 1453.63,230.674 1309.89,230.674C1216.4,230.674 1129.62,227.166 1058,221.177Z" style="fill:rgb(77,170,87);stroke:rgb(77,170,87);stroke-width:0.24px;"/>
    </g>
    <g transform="matrix(1.9823,0,0,5.49257,-2119.44,-550.259)">
        <path d="M2113.39,172.149L2113.39,190.539C2045.14,193.925 1966.35,195.857 1882.47,195.857C1871.66,195.857 1860.95,195.825 1850.33,195.762C1823.27,188.032 1790.89,181.097 1754.25,175.17C1752.13,166.27 1732.2,157.908 1698.63,150.59C1724.21,150.685 1749.45,150.978 1774.28,151.457C1777.94,155.016 1779.68,158.605 1779.3,162.167C1799.97,165.634 1818.54,169.494 1834.63,173.679C1836.28,171.139 1837.14,168.548 1837.14,165.915C1837.14,161.427 1834.65,157.058 1829.95,152.862C1935.49,156.165 2032.01,162.881 2113.39,172.149Z" style="fill:rgb(77,170,87);"/>
    </g>
    <g transform="matrix(1.97635,0,0,5.53297,-2100.56,-556.854)">
        <path d="M1339.36,163.239C1303.57,166.112 1269.76,169.423 1238.31,173.121C1228.12,188.16 1255.07,201.636 1308.75,210.54C1293.71,203.203 1290.22,194.126 1300.96,183.84C1308.25,176.864 1321.47,169.912 1339.36,163.239Z" style="fill:rgb(77,170,87);stroke:rgb(77,170,87);stroke-width:0.24px;"/>
    </g>
    <g transform="matrix(2.01453,0,0,5.57438,-2178.17,-562.65)">
        <path d="M1774.28,151.457C1777.94,155.016 1779.68,158.605 1779.3,162.167C1799.97,165.634 1818.54,169.494 1834.63,173.679C1836.28,171.139 1837.14,168.548 1837.14,165.915C1837.14,161.427 1834.65,157.058 1829.95,152.862C1811.65,152.29 1793.09,151.82 1774.28,151.457Z" style="fill:rgb(77,170,87);stroke:rgb(77,170,87);stroke-width:0.24px;"/>
    </g>
    <g transform="matrix(1.96192,0,0,5.49257,-2082.72,-550.259)">
        <path d="M1413.23,158.159C1424.5,169.198 1485.06,178.996 1575.39,185.835C1549.75,180.033 1522.07,174.603 1492.51,169.648C1466.39,165.27 1439.87,161.442 1413.23,158.159Z" style="fill:rgb(77,170,87);stroke:rgb(77,170,87);stroke-width:0.24px;"/>
    </g>
    <g transform="matrix(1.05643,0,0,0.568627,13.2362,242.961)">
        <rect x="-57.353" y="632.774" width="2130" height="204" style="fill:rgb(77,170,87);"/>
    </g>
    <g transform="matrix(1.36893,0,0,0.853774,-623.855,40.8868)">
        <rect x="652.647" y="484.774" width="1386" height="424" style="fill:rgb(77,170,87);"/>
    </g>
    <g transform="matrix(1.96192,0,0,5.49257,-2082.72,-550.259)">
        <path d="M1754.25,175.17C1752.13,166.27 1732.2,157.908 1698.63,150.59C1692.45,150.567 1686.26,150.555 1680.05,150.555C1619.64,150.555 1561.03,151.653 1505.17,153.714C1598.79,156.207 1684.29,163.851 1754.25,175.17Z" style="fill:rgb(77,170,87);stroke:rgb(77,170,87);stroke-width:0.24px;"/>
    </g>
    <g transform="matrix(1,0,0,1,6,0)">
        <path d="M739.867,314.267C798.29,304.576 858.775,296.451 920.986,290.025C1104.24,303.685 1271.7,345.407 1409.02,407.187C1409.01,407.083 1409,406.979 1408.99,406.874C1456.35,428.831 1500.09,453.246 1539.59,479.779C1540.71,480.371 1541.81,480.993 1542.91,481.643L2250.47,902.29C2287.46,924.279 2298.15,971.278 2274.33,1007.18L2188.01,1137.27C2164.19,1173.17 2114.83,1184.46 2077.84,1162.48L1746.55,965.524C1731.24,1000.71 1709.87,1034.59 1683.09,1066.77L1470.6,1066.77C1478.79,913.537 1391.02,744.023 1229.59,596.589C1179.33,550.683 1121.93,506.918 1058.07,466.451L1058.29,466.499C1008.08,434.743 953.896,405.017 896.064,377.879C844.618,353.737 792.395,332.632 739.93,314.531C739.917,314.496 739.904,314.461 739.892,314.425C739.726,314.368 739.56,314.311 739.394,314.254C739.542,314.229 739.689,314.205 739.836,314.18C739.847,314.209 739.857,314.238 739.867,314.267Z" style="stroke:black;stroke-width:1px;"/>
    </g>
    <g transform="matrix(3.86261,0,0,2.05952,-986.497,-867.677)">
        <path d="M678.189,941.217C693.345,907.057 701.808,868.991 701.808,828.872C701.808,772.128 684.879,719.491 656.025,676.205C635.15,675.554 615.005,673.665 595.933,670.694C587.931,686.082 575.956,700.321 560.784,712.918C602.574,784.505 625.298,866.813 623.179,941.217L678.189,941.217Z" style="fill:rgb(195,105,72);stroke:rgb(195,105,72);stroke-width:0.32px;"/>
    </g>
    <g transform="matrix(3.86261,0,0,2.05952,-986.497,-867.677)">
        <path d="M433.989,575.795C433.951,575.806 433.913,575.818 433.875,575.83C433.921,575.86 433.967,575.89 434.013,575.92C434.005,575.878 433.997,575.836 433.989,575.795Z" style="fill:rgb(195,105,72);stroke:rgb(195,105,72);stroke-width:0.32px;"/>
    </g>
    <g transform="matrix(3.96957,0,0,2.17049,-1032.92,-930.275)">
        <path d="M595.933,670.694C603.323,656.482 607.323,641.29 607.323,625.507C607.323,624.096 607.291,622.689 607.228,621.288C571.691,591.102 528.263,570.714 480.71,564.066C464.662,567.175 449.06,571.106 433.989,575.795C433.997,575.836 434.005,575.878 434.013,575.92C447.545,584.676 461.014,594.884 474.283,606.562C489.295,619.775 503.355,634.256 516.377,649.73C539.483,658.915 566.424,666.098 595.933,670.694Z" style="fill:rgb(195,105,72);stroke:rgb(195,105,72);stroke-width:0.31px;"/>
    </g>
    <g transform="matrix(4.22993,-0.105432,0.0561679,2.25345,-1242.87,-924.931)">
        <path d="M656.025,676.205C642.284,655.59 625.838,637.095 607.228,621.288C607.291,622.689 607.323,624.096 607.323,625.507C607.323,641.29 603.323,656.482 595.933,670.694C615.005,673.665 635.15,675.554 656.025,676.205Z" style="fill:rgb(195,105,72);stroke:rgb(195,105,72);stroke-width:0.29px;"/>
    </g>
    <g transform="matrix(4.06373,0,0,2.34438,-1098.35,-1053.76)">
        <path d="M516.377,649.73C532.911,669.378 547.772,690.629 560.784,712.918C575.956,700.321 587.931,686.082 595.933,670.694C566.424,666.098 539.483,658.915 516.377,649.73Z" style="fill:rgb(195,105,72);stroke:rgb(195,105,72);stroke-width:0.3px;"/>
    </g>
    <g transform="matrix(1.05643,0,0,1,-181.146,-407.333)">
        <path d="M568.958,718.173C570.395,712.665 572.065,707.204 573.962,701.794C576.154,705.745 578.488,709.683 580.96,713.605C576.929,715.107 572.928,716.63 568.958,718.173Z" style="fill:rgb(195,105,72);stroke:rgb(195,105,72);stroke-width:0.97px;"/>
    </g>
    <g transform="matrix(-1.43128,-0.850903,0.212392,-0.320115,3068.64,2079.91)">
        <path d="M1366.65,865.572C1366.65,753.424 1345.67,662.374 1319.82,662.374L825.47,662.374C799.628,662.374 778.647,753.424 778.647,865.572L778.647,1271.97C778.647,1384.11 799.628,1475.16 825.47,1475.16L1319.82,1475.16C1345.67,1475.16 1366.65,1384.11 1366.65,1271.97L1366.65,865.572Z" style="fill:rgb(195,105,72);stroke:rgb(195,105,72);stroke-width:0.84px;"/>
    </g>
    <g transform="matrix(1.75902,0,0,1.96603,-1435.93,-832.519)">
        <path d="M633.026,1238.71C226.446,1195.11 -59.818,1091.47 -59.818,970.693C-59.818,810.856 441.52,681.044 1059.59,680.667C770.106,726.675 557.362,878.846 557.362,1059.26C557.362,1123.89 584.668,1184.91 633.026,1238.71Z" style="fill:rgb(10,121,56);stroke:rgb(10,121,56);stroke-width:0.54px;"/>
    </g>
    <g transform="matrix(1.75902,0,0,1.96603,-1435.93,-832.519)">
        <path d="M1559.1,710.613C1929.47,758.011 2184.38,856.719 2184.38,970.693C2184.38,1044.03 2078.85,1111.04 1904.94,1162.13C1920.45,1129.34 1928.73,1094.85 1928.73,1059.26C1928.73,907.734 1778.66,776.13 1559.1,710.613Z" style="fill:rgb(10,121,56);stroke:rgb(10,121,56);stroke-width:0.54px;"/>
    </g>
    <g transform="matrix(1.07489,0,0,2.66295,-327.224,-1326.89)">
        <path d="M64.005,1103.18C-15.132,1063.46 -59.818,1018.41 -59.818,970.693C-59.818,837.495 288.333,725.149 762.059,691.182C763.529,691.182 764.999,691.181 766.47,691.181C1058.32,691.181 1334.36,699.138 1579.49,713.29C1938.8,761.661 2184.38,858.823 2184.38,970.693C2184.38,996.968 2170.84,1022.43 2145.45,1046.64C1808.82,1091.26 1315.64,1119.43 766.47,1119.43C517.712,1119.43 280.441,1113.65 64.005,1103.18Z" style="stroke:black;stroke-width:0.49px;"/>
    </g>
    <g transform="matrix(1.07489,0,0,2.66295,-391.224,-1334.89)">
        <path d="M64.005,1103.18C-15.132,1063.46 -59.818,1018.41 -59.818,970.693C-59.818,837.495 288.333,725.149 762.059,691.182C763.529,691.182 764.999,691.181 766.47,691.181C1058.32,691.181 1334.36,699.138 1579.49,713.29C1938.8,761.661 2184.38,858.823 2184.38,970.693C2184.38,996.968 2170.84,1022.43 2145.45,1046.64C1808.82,1091.26 1315.64,1119.43 766.47,1119.43C517.712,1119.43 280.441,1113.65 64.005,1103.18Z" style="fill:rgb(195,105,72);"/>
    </g>
</svg>
