<?xml version="1.0" encoding="UTF-8" standalone="no"?>
<!DOCTYPE svg PUBLIC "-//W3C//DTD SVG 1.1//EN" "http://www.w3.org/Graphics/SVG/1.1/DTD/svg11.dtd">
<svg width="100%" height="100%" viewBox="0 0 4500 3478" version="1.1" xmlns="http://www.w3.org/2000/svg" xmlns:xlink="http://www.w3.org/1999/xlink" xml:space="preserve" xmlns:serif="http://www.serif.com/" style="fill-rule:evenodd;clip-rule:evenodd;stroke-linejoin:round;stroke-miterlimit:2;">
    <path d="M90.729,3471.67L-747.266,3471.67L202.195,1583.23L788.735,2749.83L1051.5,2478.1L1948.97,3406.2L2661.98,2991.33L2879,3117.61L3667.52,2379.4L3943.02,2637.32L4360.59,2063.56L5390.17,3478.25L4841.26,3478.25L4869.37,3504.57L3544.04,3504.57L3555.35,3511.14L1768.6,3511.14L1813.84,3484.83L78.004,3484.83L90.729,3471.67Z"/>
    <g transform="matrix(1,0,0,1,-54.7602,4.54747e-13)">
        <path d="M80.76,3473.35L-747.266,3473.35L190.899,1665.37L770.462,2782.27L1030.1,2522.11L1916.89,3410.67L2621.42,3013.48L2835.86,3134.38L3615,2427.62L3887.22,2674.55L4299.82,2125.24L5317.16,3479.65L4774.78,3479.65L4802.55,3504.85L3492.99,3504.85L3504.16,3511.14L1738.67,3511.14L1783.37,3485.95L68.186,3485.95L80.76,3473.35Z" style="fill:rgb(39,39,25);"/>
    </g>
</svg>
