<?xml version="1.0" encoding="UTF-8" standalone="no"?>
<!DOCTYPE svg PUBLIC "-//W3C//DTD SVG 1.1//EN" "http://www.w3.org/Graphics/SVG/1.1/DTD/svg11.dtd">
<svg width="100%" height="100%" viewBox="0 0 1024 768" version="1.1" xmlns="http://www.w3.org/2000/svg" xmlns:xlink="http://www.w3.org/1999/xlink" xml:space="preserve" xmlns:serif="http://www.serif.com/" style="fill-rule:evenodd;clip-rule:evenodd;stroke-linejoin:round;stroke-miterlimit:2;">
    <g transform="matrix(0.218003,0,0,0.218003,11.4007,-56.5441)">
        <path d="M90.729,3471.67L-747.266,3471.67L202.195,1583.23L788.735,2749.83L1051.5,2478.1L1948.97,3406.2L2661.98,2991.33L2879,3117.61L3667.52,2379.4L3943.02,2637.32L4360.59,2063.56L5390.17,3478.25L4841.26,3478.25L4869.37,3504.57L3544.04,3504.57L3555.35,3511.14L1768.6,3511.14L1813.84,3484.83L78.004,3484.83L90.729,3471.67Z"/>
    </g>
    <g transform="matrix(1,0,0,1,-5.33333,293.333)">
        <path d="M-0.47,501.188L-0.47,103.528L46.413,13.178L172.759,256.667L229.362,199.951L422.685,393.66L576.275,307.071L623.024,333.427L792.879,179.351L852.224,233.183L942.172,113.431L1032.55,233.756L1032.55,501.188L1218.14,501.188L1218.14,885.188L-97.861,885.188L-97.861,501.188L-0.47,501.188Z" style="fill:rgb(39,39,25);"/>
    </g>
</svg>
