<?xml version="1.0" encoding="UTF-8" standalone="no"?>
<!DOCTYPE svg PUBLIC "-//W3C//DTD SVG 1.1//EN" "http://www.w3.org/Graphics/SVG/1.1/DTD/svg11.dtd">
<svg width="100%" height="100%" viewBox="0 0 1024 768" version="1.1" xmlns="http://www.w3.org/2000/svg" xmlns:xlink="http://www.w3.org/1999/xlink" xml:space="preserve" xmlns:serif="http://www.serif.com/" style="fill-rule:evenodd;clip-rule:evenodd;stroke-linejoin:round;stroke-miterlimit:2;">
    <g transform="matrix(15.6024,0,0,15.6024,-11209.7,-4704.34)">
        <g transform="matrix(1.11566,0,0,1.11566,-135.297,-18.1779)">
            <path d="M789.079,291.412C789.079,288.892 791.125,286.845 793.646,286.845C796.167,286.845 798.214,288.892 798.214,291.412C799.474,289.229 802.27,288.48 804.453,289.741C806.636,291.001 807.386,293.797 806.125,295.98C808.308,294.72 811.104,295.469 812.365,297.652C813.625,299.835 812.876,302.631 810.693,303.891C813.214,303.891 815.26,305.938 815.26,308.459C815.26,310.98 813.214,313.027 810.693,313.027C812.876,314.287 813.625,317.083 812.365,319.266C811.104,321.449 808.308,322.198 806.125,320.938C807.386,323.121 806.636,325.917 804.453,327.177C802.27,328.438 799.474,327.689 798.214,325.506C798.214,328.027 796.167,330.073 793.646,330.073C791.125,330.073 789.079,328.027 789.079,325.506C787.818,327.689 785.022,328.438 782.839,327.177C780.656,325.917 779.907,323.121 781.167,320.938C778.984,322.198 776.188,321.449 774.928,319.266C773.667,317.083 774.416,314.287 776.6,313.027C774.079,313.027 772.032,310.98 772.032,308.459C772.032,305.938 774.079,303.891 776.6,303.891C774.416,302.631 773.667,299.835 774.928,297.652C776.188,295.469 778.984,294.72 781.167,295.98C779.907,293.797 780.656,291.001 782.839,289.741C785.022,288.48 787.818,289.229 789.079,291.412Z"/>
        </g>
        <g transform="matrix(0.153266,0,0,0.153266,650.527,286.298)">
            <path d="M603.86,157.34C603.86,140.892 617.214,127.538 633.662,127.538C650.11,127.538 663.464,140.892 663.464,157.34C671.688,143.095 689.929,138.207 704.174,146.431C718.418,154.655 723.306,172.897 715.082,187.141C729.326,178.917 747.568,183.805 755.792,198.05C764.016,212.294 759.128,230.536 744.884,238.76C761.332,238.76 774.686,252.113 774.686,268.561C774.686,285.009 761.332,298.363 744.884,298.363C759.128,306.587 764.016,324.829 755.792,339.073C747.568,353.318 729.326,358.205 715.082,349.981C723.306,364.226 718.418,382.467 704.174,390.691C689.929,398.915 671.688,394.028 663.464,379.783C663.464,396.231 650.11,409.585 633.662,409.585C617.214,409.585 603.86,396.231 603.86,379.783C595.636,394.028 577.395,398.915 563.15,390.691C548.906,382.467 544.018,364.226 552.242,349.981C537.997,358.205 519.756,353.318 511.532,339.073C503.308,324.829 508.196,306.587 522.44,298.363C505.992,298.363 492.638,285.009 492.638,268.561C492.638,252.113 505.992,238.76 522.44,238.76C508.196,230.536 503.308,212.294 511.532,198.05C519.756,183.805 537.997,178.917 552.242,187.141C544.018,172.897 548.906,154.655 563.15,146.431C577.395,138.207 595.636,143.095 603.86,157.34Z" style="fill:rgb(255,28,0);"/>
        </g>
        <g transform="matrix(0.48795,0,0,0.48795,502.832,237.065)">
            <circle cx="501.497" cy="184.585" r="17.362" style="fill:rgb(255,227,0);"/>
        </g>
    </g>
</svg>
