<?xml version="1.0" encoding="UTF-8" standalone="no"?>
<!DOCTYPE svg PUBLIC "-//W3C//DTD SVG 1.1//EN" "http://www.w3.org/Graphics/SVG/1.1/DTD/svg11.dtd">
<svg width="100%" height="100%" viewBox="0 0 1920 1080" version="1.1" xmlns="http://www.w3.org/2000/svg" xmlns:xlink="http://www.w3.org/1999/xlink" xml:space="preserve" xmlns:serif="http://www.serif.com/" style="fill-rule:evenodd;clip-rule:evenodd;stroke-linecap:round;stroke-linejoin:round;stroke-miterlimit:1.5;">
    <g id="grass" transform="matrix(1,0,0,0.965762,0,4.59975)">
        <g id="grass1" serif:id="grass" transform="matrix(1,0,0,1,398.268,28.3465)">
            <g transform="matrix(0.984644,-0.174576,0.174576,0.984644,-409.355,66.3496)">
                <path d="M252.508,199.545L272.35,670.096L232.665,670.096L252.508,199.545Z" style="fill:rgb(1,59,0);"/>
            </g>
            <g transform="matrix(0.978081,-0.208225,0.208225,0.978081,-420.597,95.5701)">
                <path d="M338.256,178.285L351.72,692.773L324.791,692.773L338.256,178.285Z" style="fill:rgb(1,59,0);"/>
            </g>
            <g transform="matrix(0.992966,0.118398,-0.118398,0.992966,-276.091,-32.0766)">
                <path d="M431.799,291.671L450.933,691.356L412.665,691.356L431.799,291.671Z" style="fill:rgb(1,59,0);"/>
            </g>
            <g transform="matrix(0.952671,0.304004,-0.304004,0.952671,-157.215,-122.815)">
                <path d="M534.555,242.065L554.398,776.395L514.713,776.395L534.555,242.065Z" style="fill:rgb(1,59,0);"/>
            </g>
            <g transform="matrix(0.970189,-0.242348,0.242348,0.970189,-418.925,187.821)">
                <path d="M659.28,185.372L676.287,650.254L642.272,650.254L659.28,185.372Z" style="fill:rgb(1,59,0);"/>
            </g>
            <g transform="matrix(1,0,0,1,-337.323,15.5906)">
                <path d="M796.051,152.773L805.264,671.513L786.839,671.513L796.051,152.773Z" style="fill:rgb(1,59,0);"/>
            </g>
            <g transform="matrix(1,0,0,1,-337.323,15.5906)">
                <path d="M856.996,227.891L864.791,536.868L849.201,536.868L856.996,227.891Z" style="fill:rgb(1,59,0);"/>
            </g>
            <g transform="matrix(0.989407,0.145167,-0.145167,0.989407,-266.771,-112.812)">
                <path d="M915.106,233.561L925.736,604.899L904.476,604.899L915.106,233.561Z" style="fill:rgb(1,59,0);"/>
            </g>
            <g transform="matrix(0.994954,-0.100332,0.100332,0.994954,-373.935,121.81)">
                <path d="M1037.7,199.545L1049.04,634.663L1026.37,634.663L1037.7,199.545Z" style="fill:rgb(1,59,0);"/>
            </g>
            <g transform="matrix(0.997162,-0.0752824,0.0752824,0.997162,-368.44,103.65)">
                <path d="M1152.51,229.309L1214.87,684.269L1090.15,684.269L1152.51,229.309Z" style="fill:rgb(1,59,0);"/>
            </g>
            <g transform="matrix(1,0,0,1,-337.323,15.5906)">
                <path d="M1279.36,219.387L1299.91,655.923L1258.81,655.923L1279.36,219.387Z" style="fill:rgb(1,59,0);"/>
            </g>
            <g transform="matrix(0.99743,0.0716515,-0.0716515,0.99743,-308.628,-70.5902)">
                <path d="M1215.58,192.458L1247.47,521.277L1183.69,521.277L1215.58,192.458Z" style="fill:rgb(1,59,0);"/>
            </g>
            <g transform="matrix(1,0,0,1,-337.323,15.5906)">
                <path d="M821.563,263.324L864.791,640.332L778.335,640.332L821.563,263.324Z" style="fill:rgb(1,59,0);"/>
            </g>
            <g transform="matrix(1,0,0,1,-337.323,15.5906)">
                <path d="M581.327,203.797L612.508,658.757L550.146,658.757L581.327,203.797Z" style="fill:rgb(1,59,0);"/>
            </g>
            <g transform="matrix(1,0,0,1,-337.323,15.5906)">
                <path d="M467.941,242.065L497.705,660.175L438.177,660.175L467.941,242.065Z" style="fill:rgb(1,59,0);"/>
            </g>
            <g transform="matrix(1,0,0,1,-337.323,15.5906)">
                <path d="M372.98,260.49L401.327,616.238L344.634,616.238L372.98,260.49Z" style="fill:rgb(1,59,0);"/>
            </g>
            <g transform="matrix(1,0,0,1,-337.323,15.5906)">
                <path d="M716.681,267.576L751.406,653.088L681.957,653.088L716.681,267.576Z" style="fill:rgb(1,59,0);"/>
            </g>
            <g transform="matrix(0.712623,-0.384054,0.463257,0.859586,-226.77,497.819)">
                <path d="M1083.77,259.072L1098.65,620.49L1068.89,620.49L1083.77,259.072Z" style="fill:rgb(1,59,0);"/>
            </g>
            <g transform="matrix(0.949849,0.312708,-0.312708,0.949849,-115.975,-392.906)">
                <path d="M1384.24,270.411L1430.3,701.277L1338.18,701.277L1384.24,270.411Z" style="fill:rgb(1,59,0);"/>
            </g>
            <g transform="matrix(0.91253,-0.40901,0.40901,0.91253,-364.226,692.819)">
                <path d="M1569.91,199.545L1590.46,603.482L1549.36,603.482L1569.91,199.545Z" style="fill:rgb(1,59,0);"/>
            </g>
            <g transform="matrix(0.975364,0.220601,-0.220601,0.975364,-210.139,-358.519)">
                <path d="M1738.57,154.191L1753.45,610.568L1723.69,610.568L1738.57,154.191Z" style="fill:rgb(1,59,0);"/>
            </g>
            <g transform="matrix(0.991199,-0.132378,0.132378,0.991199,-371.713,237.547)">
                <path d="M1652.11,181.12L1668.41,558.128L1635.82,558.128L1652.11,181.12Z" style="fill:rgb(1,59,0);"/>
            </g>
            <g transform="matrix(1,0,0,1,-337.323,15.5906)">
                <path d="M1611.01,205.214L1615.97,552.458L1606.05,552.458L1611.01,205.214Z" style="fill:rgb(1,59,0);"/>
            </g>
            <g transform="matrix(1,0,0,1,-337.323,15.5906)">
                <path d="M1532.35,161.277L1566.37,638.915L1498.34,638.915L1532.35,161.277Z" style="fill:rgb(1,59,0);"/>
            </g>
            <g transform="matrix(1,0,0,1,-337.323,15.5906)">
                <path d="M1431.01,206.631L1452.98,460.332L1409.04,460.332L1431.01,206.631Z" style="fill:rgb(1,59,0);"/>
            </g>
            <g transform="matrix(1,0,0,1,-337.323,15.5906)">
                <path d="M1465.74,256.238L1501.17,735.293L1430.3,735.293L1465.74,256.238Z" style="fill:rgb(1,59,0);"/>
            </g>
            <g transform="matrix(0.997293,-0.0735235,0.0735235,0.997293,-367.268,115.683)">
                <path d="M1344.56,280.332L1360.85,633.246L1328.26,633.246L1344.56,280.332Z" style="fill:rgb(1,59,0);"/>
            </g>
            <g transform="matrix(0.996056,-0.0887288,0.0887288,0.996056,-369.748,181.301)">
                <path d="M1847.7,259.072L1872.51,636.08L1822.9,636.08L1847.7,259.072Z" style="fill:rgb(1,59,0);"/>
            </g>
            <g transform="matrix(0.95024,-0.31152,0.31152,0.95024,-391.63,594.851)">
                <path d="M1786.05,264.742L1803.06,654.505L1769.04,654.505L1786.05,264.742Z" style="fill:rgb(1,59,0);"/>
            </g>
        </g>
        <g id="grass2" serif:id="grass" transform="matrix(1,0,0,1,-127.559,-34.0157)">
            <g transform="matrix(0.992966,0.118398,-0.118398,0.992966,-276.091,-32.0766)">
                <path d="M431.799,291.671L450.933,691.356L412.665,691.356L431.799,291.671Z" style="fill:rgb(1,59,0);"/>
            </g>
            <g transform="matrix(0.952671,0.304004,-0.304004,0.952671,-157.215,-122.815)">
                <path d="M534.555,242.065L554.398,776.395L514.713,776.395L534.555,242.065Z" style="fill:rgb(1,59,0);"/>
            </g>
            <g transform="matrix(0.970189,-0.242348,0.242348,0.970189,-418.925,187.821)">
                <path d="M659.28,185.372L676.287,650.254L642.272,650.254L659.28,185.372Z" style="fill:rgb(1,59,0);"/>
            </g>
            <g transform="matrix(1,0,0,1,-337.323,15.5906)">
                <path d="M796.051,152.773L805.264,671.513L786.839,671.513L796.051,152.773Z" style="fill:rgb(1,59,0);"/>
            </g>
            <g transform="matrix(1,0,0,1,-337.323,15.5906)">
                <path d="M856.996,227.891L864.791,536.868L849.201,536.868L856.996,227.891Z" style="fill:rgb(1,59,0);"/>
            </g>
            <g transform="matrix(0.989407,0.145167,-0.145167,0.989407,-266.771,-112.812)">
                <path d="M915.106,233.561L925.736,604.899L904.476,604.899L915.106,233.561Z" style="fill:rgb(1,59,0);"/>
            </g>
            <g transform="matrix(0.994954,-0.100332,0.100332,0.994954,-373.935,121.81)">
                <path d="M1037.7,199.545L1049.04,634.663L1026.37,634.663L1037.7,199.545Z" style="fill:rgb(1,59,0);"/>
            </g>
            <g transform="matrix(0.997162,-0.0752824,0.0752824,0.997162,-368.44,103.65)">
                <path d="M1152.51,229.309L1214.87,684.269L1090.15,684.269L1152.51,229.309Z" style="fill:rgb(1,59,0);"/>
            </g>
            <g transform="matrix(1,0,0,1,-337.323,15.5906)">
                <path d="M1279.36,219.387L1299.91,655.923L1258.81,655.923L1279.36,219.387Z" style="fill:rgb(1,59,0);"/>
            </g>
            <g transform="matrix(0.99743,0.0716515,-0.0716515,0.99743,-308.628,-70.5902)">
                <path d="M1215.58,192.458L1247.47,521.277L1183.69,521.277L1215.58,192.458Z" style="fill:rgb(1,59,0);"/>
            </g>
            <g transform="matrix(1,0,0,1,-337.323,15.5906)">
                <path d="M821.563,263.324L864.791,640.332L778.335,640.332L821.563,263.324Z" style="fill:rgb(1,59,0);"/>
            </g>
            <g transform="matrix(1,0,0,1,-337.323,15.5906)">
                <path d="M581.327,203.797L612.508,658.757L550.146,658.757L581.327,203.797Z" style="fill:rgb(1,59,0);"/>
            </g>
            <g transform="matrix(1,0,0,1,-337.323,15.5906)">
                <path d="M467.941,242.065L497.705,660.175L438.177,660.175L467.941,242.065Z" style="fill:rgb(1,59,0);"/>
            </g>
            <g transform="matrix(1,0,0,1,-337.323,15.5906)">
                <path d="M716.681,267.576L751.406,653.088L681.957,653.088L716.681,267.576Z" style="fill:rgb(1,59,0);"/>
            </g>
            <g transform="matrix(0.712623,-0.384054,0.463257,0.859586,-226.77,497.819)">
                <path d="M1083.77,259.072L1098.65,620.49L1068.89,620.49L1083.77,259.072Z" style="fill:rgb(1,59,0);"/>
            </g>
            <g transform="matrix(0.949849,0.312708,-0.312708,0.949849,-115.975,-392.906)">
                <path d="M1384.24,270.411L1430.3,701.277L1338.18,701.277L1384.24,270.411Z" style="fill:rgb(1,59,0);"/>
            </g>
            <g transform="matrix(0.91253,-0.40901,0.40901,0.91253,-364.226,692.819)">
                <path d="M1569.91,199.545L1590.46,603.482L1549.36,603.482L1569.91,199.545Z" style="fill:rgb(1,59,0);"/>
            </g>
            <g transform="matrix(0.975364,0.220601,-0.220601,0.975364,-210.139,-358.519)">
                <path d="M1738.57,154.191L1753.45,610.568L1723.69,610.568L1738.57,154.191Z" style="fill:rgb(1,59,0);"/>
            </g>
            <g transform="matrix(0.991199,-0.132378,0.132378,0.991199,-371.713,237.547)">
                <path d="M1652.11,181.12L1668.41,558.128L1635.82,558.128L1652.11,181.12Z" style="fill:rgb(1,59,0);"/>
            </g>
            <g transform="matrix(1,0,0,1,-337.323,15.5906)">
                <path d="M1611.01,205.214L1615.97,552.458L1606.05,552.458L1611.01,205.214Z" style="fill:rgb(1,59,0);"/>
            </g>
            <g transform="matrix(1,0,0,1,-337.323,15.5906)">
                <path d="M1532.35,161.277L1566.37,638.915L1498.34,638.915L1532.35,161.277Z" style="fill:rgb(1,59,0);"/>
            </g>
            <g transform="matrix(1,0,0,1,-337.323,15.5906)">
                <path d="M1431.01,206.631L1452.98,460.332L1409.04,460.332L1431.01,206.631Z" style="fill:rgb(1,59,0);"/>
            </g>
            <g transform="matrix(1,0,0,1,-337.323,15.5906)">
                <path d="M1465.74,256.238L1501.17,735.293L1430.3,735.293L1465.74,256.238Z" style="fill:rgb(1,59,0);"/>
            </g>
            <g transform="matrix(0.997293,-0.0735235,0.0735235,0.997293,-367.268,115.683)">
                <path d="M1344.56,280.332L1360.85,633.246L1328.26,633.246L1344.56,280.332Z" style="fill:rgb(1,59,0);"/>
            </g>
            <g transform="matrix(0.996056,-0.0887288,0.0887288,0.996056,-369.748,181.301)">
                <path d="M1847.7,259.072L1872.51,636.08L1822.9,636.08L1847.7,259.072Z" style="fill:rgb(1,59,0);"/>
            </g>
            <g transform="matrix(0.95024,-0.31152,0.31152,0.95024,-391.63,594.851)">
                <path d="M1786.05,264.742L1803.06,654.505L1769.04,654.505L1786.05,264.742Z" style="fill:rgb(1,59,0);"/>
            </g>
        </g>
        <g id="grass3" serif:id="grass" transform="matrix(1,0,0,1,-280.63,-4.25197)">
            <g transform="matrix(0.952671,0.304004,-0.304004,0.952671,-157.215,-122.815)">
                <path d="M534.555,242.065L554.398,776.395L514.713,776.395L534.555,242.065Z" style="fill:rgb(1,59,0);"/>
            </g>
            <g transform="matrix(0.970189,-0.242348,0.242348,0.970189,-418.925,187.821)">
                <path d="M659.28,185.372L676.287,650.254L642.272,650.254L659.28,185.372Z" style="fill:rgb(1,59,0);"/>
            </g>
            <g transform="matrix(1,0,0,1,-337.323,15.5906)">
                <path d="M796.051,152.773L805.264,671.513L786.839,671.513L796.051,152.773Z" style="fill:rgb(1,59,0);"/>
            </g>
            <g transform="matrix(1,0,0,1,-337.323,15.5906)">
                <path d="M856.996,227.891L864.791,536.868L849.201,536.868L856.996,227.891Z" style="fill:rgb(1,59,0);"/>
            </g>
            <g transform="matrix(0.989407,0.145167,-0.145167,0.989407,-266.771,-112.812)">
                <path d="M915.106,233.561L925.736,604.899L904.476,604.899L915.106,233.561Z" style="fill:rgb(1,59,0);"/>
            </g>
            <g transform="matrix(0.994954,-0.100332,0.100332,0.994954,-373.935,121.81)">
                <path d="M1037.7,199.545L1049.04,634.663L1026.37,634.663L1037.7,199.545Z" style="fill:rgb(1,59,0);"/>
            </g>
            <g transform="matrix(0.997162,-0.0752824,0.0752824,0.997162,-368.44,103.65)">
                <path d="M1152.51,229.309L1214.87,684.269L1090.15,684.269L1152.51,229.309Z" style="fill:rgb(1,59,0);"/>
            </g>
            <g transform="matrix(1,0,0,1,-337.323,15.5906)">
                <path d="M1279.36,219.387L1299.91,655.923L1258.81,655.923L1279.36,219.387Z" style="fill:rgb(1,59,0);"/>
            </g>
            <g transform="matrix(0.99743,0.0716515,-0.0716515,0.99743,-308.628,-70.5902)">
                <path d="M1215.58,192.458L1247.47,521.277L1183.69,521.277L1215.58,192.458Z" style="fill:rgb(1,59,0);"/>
            </g>
            <g transform="matrix(1,0,0,1,-337.323,15.5906)">
                <path d="M821.563,263.324L864.791,640.332L778.335,640.332L821.563,263.324Z" style="fill:rgb(1,59,0);"/>
            </g>
            <g transform="matrix(1,0,0,1,-337.323,15.5906)">
                <path d="M716.681,267.576L751.406,653.088L681.957,653.088L716.681,267.576Z" style="fill:rgb(1,59,0);"/>
            </g>
            <g transform="matrix(0.712623,-0.384054,0.463257,0.859586,-226.77,497.819)">
                <path d="M1083.77,259.072L1098.65,620.49L1068.89,620.49L1083.77,259.072Z" style="fill:rgb(1,59,0);"/>
            </g>
            <g transform="matrix(0.949849,0.312708,-0.312708,0.949849,-115.975,-392.906)">
                <path d="M1384.24,270.411L1430.3,701.277L1338.18,701.277L1384.24,270.411Z" style="fill:rgb(1,59,0);"/>
            </g>
            <g transform="matrix(0.91253,-0.40901,0.40901,0.91253,-364.226,692.819)">
                <path d="M1569.91,199.545L1590.46,603.482L1549.36,603.482L1569.91,199.545Z" style="fill:rgb(1,59,0);"/>
            </g>
            <g transform="matrix(0.975364,0.220601,-0.220601,0.975364,-210.139,-358.519)">
                <path d="M1738.57,154.191L1753.45,610.568L1723.69,610.568L1738.57,154.191Z" style="fill:rgb(1,59,0);"/>
            </g>
            <g transform="matrix(0.991199,-0.132378,0.132378,0.991199,-371.713,237.547)">
                <path d="M1652.11,181.12L1668.41,558.128L1635.82,558.128L1652.11,181.12Z" style="fill:rgb(1,59,0);"/>
            </g>
            <g transform="matrix(1,0,0,1,-337.323,15.5906)">
                <path d="M1611.01,205.214L1615.97,552.458L1606.05,552.458L1611.01,205.214Z" style="fill:rgb(1,59,0);"/>
            </g>
            <g transform="matrix(1,0,0,1,-337.323,15.5906)">
                <path d="M1532.35,161.277L1566.37,638.915L1498.34,638.915L1532.35,161.277Z" style="fill:rgb(1,59,0);"/>
            </g>
            <g transform="matrix(1,0,0,1,-337.323,15.5906)">
                <path d="M1431.01,206.631L1452.98,460.332L1409.04,460.332L1431.01,206.631Z" style="fill:rgb(1,59,0);"/>
            </g>
            <g transform="matrix(1,0,0,1,-337.323,15.5906)">
                <path d="M1465.74,256.238L1501.17,735.293L1430.3,735.293L1465.74,256.238Z" style="fill:rgb(1,59,0);"/>
            </g>
            <g transform="matrix(0.997293,-0.0735235,0.0735235,0.997293,-367.268,115.683)">
                <path d="M1344.56,280.332L1360.85,633.246L1328.26,633.246L1344.56,280.332Z" style="fill:rgb(1,59,0);"/>
            </g>
            <g transform="matrix(0.996056,-0.0887288,0.0887288,0.996056,-369.748,181.301)">
                <path d="M1847.7,259.072L1872.51,636.08L1822.9,636.08L1847.7,259.072Z" style="fill:rgb(1,59,0);"/>
            </g>
            <g transform="matrix(0.95024,-0.31152,0.31152,0.95024,-391.63,594.851)">
                <path d="M1786.05,264.742L1803.06,654.505L1769.04,654.505L1786.05,264.742Z" style="fill:rgb(1,59,0);"/>
            </g>
        </g>
        <g id="grass4" serif:id="grass" transform="matrix(1,0,0,1,464.882,25.5118)">
            <g transform="matrix(0.984644,-0.174576,0.174576,0.984644,-409.355,66.3496)">
                <path d="M252.508,199.545L272.35,670.096L232.665,670.096L252.508,199.545Z" style="fill:rgb(1,59,0);"/>
            </g>
            <g transform="matrix(0.978081,-0.208225,0.208225,0.978081,-420.597,95.5701)">
                <path d="M338.256,178.285L351.72,692.773L324.791,692.773L338.256,178.285Z" style="fill:rgb(1,59,0);"/>
            </g>
            <g transform="matrix(0.992966,0.118398,-0.118398,0.992966,-276.091,-32.0766)">
                <path d="M431.799,291.671L450.933,691.356L412.665,691.356L431.799,291.671Z" style="fill:rgb(1,59,0);"/>
            </g>
            <g transform="matrix(0.952671,0.304004,-0.304004,0.952671,-157.215,-122.815)">
                <path d="M534.555,242.065L554.398,776.395L514.713,776.395L534.555,242.065Z" style="fill:rgb(1,59,0);"/>
            </g>
            <g transform="matrix(0.970189,-0.242348,0.242348,0.970189,-418.925,187.821)">
                <path d="M659.28,185.372L676.287,650.254L642.272,650.254L659.28,185.372Z" style="fill:rgb(1,59,0);"/>
            </g>
            <g transform="matrix(1,0,0,1,-337.323,15.5906)">
                <path d="M796.051,152.773L805.264,671.513L786.839,671.513L796.051,152.773Z" style="fill:rgb(1,59,0);"/>
            </g>
            <g transform="matrix(1,0,0,1,-337.323,15.5906)">
                <path d="M856.996,227.891L864.791,536.868L849.201,536.868L856.996,227.891Z" style="fill:rgb(1,59,0);"/>
            </g>
            <g transform="matrix(0.989407,0.145167,-0.145167,0.989407,-266.771,-112.812)">
                <path d="M915.106,233.561L925.736,604.899L904.476,604.899L915.106,233.561Z" style="fill:rgb(1,59,0);"/>
            </g>
            <g transform="matrix(0.994954,-0.100332,0.100332,0.994954,-373.935,121.81)">
                <path d="M1037.7,199.545L1049.04,634.663L1026.37,634.663L1037.7,199.545Z" style="fill:rgb(1,59,0);"/>
            </g>
            <g transform="matrix(0.997162,-0.0752824,0.0752824,0.997162,-368.44,103.65)">
                <path d="M1152.51,229.309L1214.87,684.269L1090.15,684.269L1152.51,229.309Z" style="fill:rgb(1,59,0);"/>
            </g>
            <g transform="matrix(1,0,0,1,-337.323,15.5906)">
                <path d="M1279.36,219.387L1299.91,655.923L1258.81,655.923L1279.36,219.387Z" style="fill:rgb(1,59,0);"/>
            </g>
            <g transform="matrix(0.99743,0.0716515,-0.0716515,0.99743,-308.628,-70.5902)">
                <path d="M1215.58,192.458L1247.47,521.277L1183.69,521.277L1215.58,192.458Z" style="fill:rgb(1,59,0);"/>
            </g>
            <g transform="matrix(1,0,0,1,-337.323,15.5906)">
                <path d="M821.563,263.324L864.791,640.332L778.335,640.332L821.563,263.324Z" style="fill:rgb(1,59,0);"/>
            </g>
            <g transform="matrix(1,0,0,1,-337.323,15.5906)">
                <path d="M581.327,203.797L612.508,658.757L550.146,658.757L581.327,203.797Z" style="fill:rgb(1,59,0);"/>
            </g>
            <g transform="matrix(1,0,0,1,-337.323,15.5906)">
                <path d="M467.941,242.065L497.705,660.175L438.177,660.175L467.941,242.065Z" style="fill:rgb(1,59,0);"/>
            </g>
            <g transform="matrix(1,0,0,1,-337.323,15.5906)">
                <path d="M372.98,260.49L401.327,616.238L344.634,616.238L372.98,260.49Z" style="fill:rgb(1,59,0);"/>
            </g>
            <g transform="matrix(1,0,0,1,-337.323,15.5906)">
                <path d="M716.681,267.576L751.406,653.088L681.957,653.088L716.681,267.576Z" style="fill:rgb(1,59,0);"/>
            </g>
            <g transform="matrix(0.712623,-0.384054,0.463257,0.859586,-226.77,497.819)">
                <path d="M1083.77,259.072L1098.65,620.49L1068.89,620.49L1083.77,259.072Z" style="fill:rgb(1,59,0);"/>
            </g>
            <g transform="matrix(0.949849,0.312708,-0.312708,0.949849,-115.975,-392.906)">
                <path d="M1384.24,270.411L1430.3,701.277L1338.18,701.277L1384.24,270.411Z" style="fill:rgb(1,59,0);"/>
            </g>
            <g transform="matrix(0.91253,-0.40901,0.40901,0.91253,-364.226,692.819)">
                <path d="M1569.91,199.545L1590.46,603.482L1549.36,603.482L1569.91,199.545Z" style="fill:rgb(1,59,0);"/>
            </g>
            <g transform="matrix(0.975364,0.220601,-0.220601,0.975364,-210.139,-358.519)">
                <path d="M1738.57,154.191L1753.45,610.568L1723.69,610.568L1738.57,154.191Z" style="fill:rgb(1,59,0);"/>
            </g>
            <g transform="matrix(0.991199,-0.132378,0.132378,0.991199,-371.713,237.547)">
                <path d="M1652.11,181.12L1668.41,558.128L1635.82,558.128L1652.11,181.12Z" style="fill:rgb(1,59,0);"/>
            </g>
            <g transform="matrix(1,0,0,1,-337.323,15.5906)">
                <path d="M1611.01,205.214L1615.97,552.458L1606.05,552.458L1611.01,205.214Z" style="fill:rgb(1,59,0);"/>
            </g>
            <g transform="matrix(1,0,0,1,-337.323,15.5906)">
                <path d="M1532.35,161.277L1566.37,638.915L1498.34,638.915L1532.35,161.277Z" style="fill:rgb(1,59,0);"/>
            </g>
            <g transform="matrix(1,0,0,1,-337.323,15.5906)">
                <path d="M1431.01,206.631L1452.98,460.332L1409.04,460.332L1431.01,206.631Z" style="fill:rgb(1,59,0);"/>
            </g>
            <g transform="matrix(1,0,0,1,-337.323,15.5906)">
                <path d="M1465.74,256.238L1501.17,735.293L1430.3,735.293L1465.74,256.238Z" style="fill:rgb(1,59,0);"/>
            </g>
            <g transform="matrix(0.997293,-0.0735235,0.0735235,0.997293,-367.268,115.683)">
                <path d="M1344.56,280.332L1360.85,633.246L1328.26,633.246L1344.56,280.332Z" style="fill:rgb(1,59,0);"/>
            </g>
            <g transform="matrix(0.95024,-0.31152,0.31152,0.95024,-391.63,594.851)">
                <path d="M1786.05,264.742L1803.06,654.505L1769.04,654.505L1786.05,264.742Z" style="fill:rgb(1,59,0);"/>
            </g>
        </g>
        <g transform="matrix(1,0,0,1,-51.0236,-128.976)">
            <rect x="-72.059" y="680.017" width="2185.34" height="634.783" style="fill:rgb(1,59,0);"/>
        </g>
        <g id="grass5" serif:id="grass" transform="matrix(1,0,0,1,579.685,51.0236)">
            <g transform="matrix(0.984644,-0.174576,0.174576,0.984644,-409.355,66.3496)">
                <path d="M252.508,199.545L272.35,670.096L232.665,670.096L252.508,199.545Z" style="fill:rgb(1,59,0);"/>
            </g>
            <g transform="matrix(0.978081,-0.208225,0.208225,0.978081,-420.597,95.5701)">
                <path d="M338.256,178.285L351.72,692.773L324.791,692.773L338.256,178.285Z" style="fill:rgb(1,59,0);"/>
            </g>
            <g transform="matrix(0.992966,0.118398,-0.118398,0.992966,-276.091,-32.0766)">
                <path d="M431.799,291.671L450.933,691.356L412.665,691.356L431.799,291.671Z" style="fill:rgb(1,59,0);"/>
            </g>
            <g transform="matrix(0.952671,0.304004,-0.304004,0.952671,-157.215,-122.815)">
                <path d="M534.555,242.065L554.398,776.395L514.713,776.395L534.555,242.065Z" style="fill:rgb(1,59,0);"/>
            </g>
            <g transform="matrix(0.970189,-0.242348,0.242348,0.970189,-418.925,187.821)">
                <path d="M659.28,185.372L676.287,650.254L642.272,650.254L659.28,185.372Z" style="fill:rgb(1,59,0);"/>
            </g>
            <g transform="matrix(1,0,0,1,-337.323,15.5906)">
                <path d="M796.051,152.773L805.264,671.513L786.839,671.513L796.051,152.773Z" style="fill:rgb(1,59,0);"/>
            </g>
            <g transform="matrix(1,0,0,1,-337.323,15.5906)">
                <path d="M856.996,227.891L864.791,536.868L849.201,536.868L856.996,227.891Z" style="fill:rgb(1,59,0);"/>
            </g>
            <g transform="matrix(0.989407,0.145167,-0.145167,0.989407,-266.771,-112.812)">
                <path d="M915.106,233.561L925.736,604.899L904.476,604.899L915.106,233.561Z" style="fill:rgb(1,59,0);"/>
            </g>
            <g transform="matrix(0.994954,-0.100332,0.100332,0.994954,-373.935,121.81)">
                <path d="M1037.7,199.545L1049.04,634.663L1026.37,634.663L1037.7,199.545Z" style="fill:rgb(1,59,0);"/>
            </g>
            <g transform="matrix(0.997162,-0.0752824,0.0752824,0.997162,-368.44,103.65)">
                <path d="M1152.51,229.309L1214.87,684.269L1090.15,684.269L1152.51,229.309Z" style="fill:rgb(1,59,0);"/>
            </g>
            <g transform="matrix(1,0,0,1,-337.323,15.5906)">
                <path d="M1279.36,219.387L1299.91,655.923L1258.81,655.923L1279.36,219.387Z" style="fill:rgb(1,59,0);"/>
            </g>
            <g transform="matrix(0.99743,0.0716515,-0.0716515,0.99743,-308.628,-70.5902)">
                <path d="M1215.58,192.458L1247.47,521.277L1183.69,521.277L1215.58,192.458Z" style="fill:rgb(1,59,0);"/>
            </g>
            <g transform="matrix(1,0,0,1,-337.323,15.5906)">
                <path d="M821.563,263.324L864.791,640.332L778.335,640.332L821.563,263.324Z" style="fill:rgb(1,59,0);"/>
            </g>
            <g transform="matrix(1,0,0,1,-337.323,15.5906)">
                <path d="M581.327,203.797L612.508,658.757L550.146,658.757L581.327,203.797Z" style="fill:rgb(1,59,0);"/>
            </g>
            <g transform="matrix(1,0,0,1,-337.323,15.5906)">
                <path d="M467.941,242.065L497.705,660.175L438.177,660.175L467.941,242.065Z" style="fill:rgb(1,59,0);"/>
            </g>
            <g transform="matrix(1,0,0,1,-337.323,15.5906)">
                <path d="M372.98,260.49L401.327,616.238L344.634,616.238L372.98,260.49Z" style="fill:rgb(1,59,0);"/>
            </g>
            <g transform="matrix(1,0,0,1,-337.323,15.5906)">
                <path d="M716.681,267.576L751.406,653.088L681.957,653.088L716.681,267.576Z" style="fill:rgb(1,59,0);"/>
            </g>
            <g transform="matrix(0.712623,-0.384054,0.463257,0.859586,-226.77,497.819)">
                <path d="M1083.77,259.072L1098.65,620.49L1068.89,620.49L1083.77,259.072Z" style="fill:rgb(1,59,0);"/>
            </g>
            <g transform="matrix(0.949849,0.312708,-0.312708,0.949849,-115.975,-392.906)">
                <path d="M1384.24,270.411L1430.3,701.277L1338.18,701.277L1384.24,270.411Z" style="fill:rgb(1,59,0);"/>
            </g>
            <g transform="matrix(0.91253,-0.40901,0.40901,0.91253,-364.226,692.819)">
                <path d="M1569.91,199.545L1590.46,603.482L1549.36,603.482L1569.91,199.545Z" style="fill:rgb(1,59,0);"/>
            </g>
            <g transform="matrix(0.975364,0.220601,-0.220601,0.975364,-210.139,-358.519)">
                <path d="M1738.57,154.191L1753.45,610.568L1723.69,610.568L1738.57,154.191Z" style="fill:rgb(1,59,0);"/>
            </g>
            <g transform="matrix(0.991199,-0.132378,0.132378,0.991199,-371.713,237.547)">
                <path d="M1652.11,181.12L1668.41,558.128L1635.82,558.128L1652.11,181.12Z" style="fill:rgb(1,59,0);"/>
            </g>
            <g transform="matrix(1,0,0,1,-337.323,15.5906)">
                <path d="M1611.01,205.214L1615.97,552.458L1606.05,552.458L1611.01,205.214Z" style="fill:rgb(1,59,0);"/>
            </g>
            <g transform="matrix(1,0,0,1,-337.323,15.5906)">
                <path d="M1532.35,161.277L1566.37,638.915L1498.34,638.915L1532.35,161.277Z" style="fill:rgb(1,59,0);"/>
            </g>
            <g transform="matrix(1,0,0,1,-337.323,15.5906)">
                <path d="M1431.01,206.631L1452.98,460.332L1409.04,460.332L1431.01,206.631Z" style="fill:rgb(1,59,0);"/>
            </g>
            <g transform="matrix(1,0,0,1,-337.323,15.5906)">
                <path d="M1465.74,256.238L1501.17,735.293L1430.3,735.293L1465.74,256.238Z" style="fill:rgb(1,59,0);"/>
            </g>
            <g transform="matrix(0.997293,-0.0735235,0.0735235,0.997293,-367.268,115.683)">
                <path d="M1344.56,280.332L1360.85,633.246L1328.26,633.246L1344.56,280.332Z" style="fill:rgb(1,59,0);"/>
            </g>
        </g>
        <g id="grass6" serif:id="grass">
            <g transform="matrix(0.978081,-0.208225,0.208225,0.978081,-420.597,95.5701)">
                <path d="M338.256,178.285L351.72,692.773L324.791,692.773L338.256,178.285Z" style="fill:rgb(1,59,0);"/>
            </g>
            <g transform="matrix(0.992966,0.118398,-0.118398,0.992966,-276.091,-32.0766)">
                <path d="M431.799,291.671L450.933,691.356L412.665,691.356L431.799,291.671Z" style="fill:rgb(1,59,0);"/>
            </g>
            <g transform="matrix(0.952671,0.304004,-0.304004,0.952671,-157.215,-122.815)">
                <path d="M534.555,242.065L554.398,776.395L514.713,776.395L534.555,242.065Z" style="fill:rgb(1,59,0);"/>
            </g>
            <g transform="matrix(0.970189,-0.242348,0.242348,0.970189,-418.925,187.821)">
                <path d="M659.28,185.372L676.287,650.254L642.272,650.254L659.28,185.372Z" style="fill:rgb(1,59,0);"/>
            </g>
            <g transform="matrix(1,0,0,1,-337.323,15.5906)">
                <path d="M796.051,152.773L805.264,671.513L786.839,671.513L796.051,152.773Z" style="fill:rgb(1,59,0);"/>
            </g>
            <g transform="matrix(1,0,0,1,-337.323,15.5906)">
                <path d="M856.996,227.891L864.791,536.868L849.201,536.868L856.996,227.891Z" style="fill:rgb(1,59,0);"/>
            </g>
            <g transform="matrix(0.989407,0.145167,-0.145167,0.989407,-266.771,-112.812)">
                <path d="M915.106,233.561L925.736,604.899L904.476,604.899L915.106,233.561Z" style="fill:rgb(1,59,0);"/>
            </g>
            <g transform="matrix(0.994954,-0.100332,0.100332,0.994954,-373.935,121.81)">
                <path d="M1037.7,199.545L1049.04,634.663L1026.37,634.663L1037.7,199.545Z" style="fill:rgb(1,59,0);"/>
            </g>
            <g transform="matrix(0.997162,-0.0752824,0.0752824,0.997162,-368.44,103.65)">
                <path d="M1152.51,229.309L1214.87,684.269L1090.15,684.269L1152.51,229.309Z" style="fill:rgb(1,59,0);"/>
            </g>
            <g transform="matrix(1,0,0,1,-337.323,15.5906)">
                <path d="M1279.36,219.387L1299.91,655.923L1258.81,655.923L1279.36,219.387Z" style="fill:rgb(1,59,0);"/>
            </g>
            <g transform="matrix(0.99743,0.0716515,-0.0716515,0.99743,-308.628,-70.5902)">
                <path d="M1215.58,192.458L1247.47,521.277L1183.69,521.277L1215.58,192.458Z" style="fill:rgb(1,59,0);"/>
            </g>
            <g transform="matrix(1,0,0,1,-337.323,15.5906)">
                <path d="M821.563,263.324L864.791,640.332L778.335,640.332L821.563,263.324Z" style="fill:rgb(1,59,0);"/>
            </g>
            <g transform="matrix(1,0,0,1,-337.323,15.5906)">
                <path d="M581.327,203.797L612.508,658.757L550.146,658.757L581.327,203.797Z" style="fill:rgb(1,59,0);"/>
            </g>
            <g transform="matrix(1,0,0,1,-337.323,15.5906)">
                <path d="M467.941,242.065L497.705,660.175L438.177,660.175L467.941,242.065Z" style="fill:rgb(1,59,0);"/>
            </g>
            <g transform="matrix(1,0,0,1,-337.323,15.5906)">
                <path d="M372.98,260.49L401.327,616.238L344.634,616.238L372.98,260.49Z" style="fill:rgb(1,59,0);"/>
            </g>
            <g transform="matrix(1,0,0,1,-337.323,15.5906)">
                <path d="M716.681,267.576L751.406,653.088L681.957,653.088L716.681,267.576Z" style="fill:rgb(1,59,0);"/>
            </g>
            <g transform="matrix(0.712623,-0.384054,0.463257,0.859586,-226.77,497.819)">
                <path d="M1083.77,259.072L1098.65,620.49L1068.89,620.49L1083.77,259.072Z" style="fill:rgb(1,59,0);"/>
            </g>
            <g transform="matrix(0.949849,0.312708,-0.312708,0.949849,-115.975,-392.906)">
                <path d="M1384.24,270.411L1430.3,701.277L1338.18,701.277L1384.24,270.411Z" style="fill:rgb(1,59,0);"/>
            </g>
            <g transform="matrix(0.91253,-0.40901,0.40901,0.91253,-364.226,692.819)">
                <path d="M1569.91,199.545L1590.46,603.482L1549.36,603.482L1569.91,199.545Z" style="fill:rgb(1,59,0);"/>
            </g>
            <g transform="matrix(0.975364,0.220601,-0.220601,0.975364,-210.139,-358.519)">
                <path d="M1738.57,154.191L1753.45,610.568L1723.69,610.568L1738.57,154.191Z" style="fill:rgb(1,59,0);"/>
            </g>
            <g transform="matrix(0.991199,-0.132378,0.132378,0.991199,-371.713,237.547)">
                <path d="M1652.11,181.12L1668.41,558.128L1635.82,558.128L1652.11,181.12Z" style="fill:rgb(1,59,0);"/>
            </g>
            <g transform="matrix(1,0,0,1,-337.323,15.5906)">
                <path d="M1611.01,205.214L1615.97,552.458L1606.05,552.458L1611.01,205.214Z" style="fill:rgb(1,59,0);"/>
            </g>
            <g transform="matrix(1,0,0,1,-337.323,15.5906)">
                <path d="M1532.35,161.277L1566.37,638.915L1498.34,638.915L1532.35,161.277Z" style="fill:rgb(1,59,0);"/>
            </g>
            <g transform="matrix(1,0,0,1,-337.323,15.5906)">
                <path d="M1431.01,206.631L1452.98,460.332L1409.04,460.332L1431.01,206.631Z" style="fill:rgb(1,59,0);"/>
            </g>
            <g transform="matrix(1,0,0,1,-337.323,15.5906)">
                <path d="M1465.74,256.238L1501.17,735.293L1430.3,735.293L1465.74,256.238Z" style="fill:rgb(1,59,0);"/>
            </g>
            <g transform="matrix(0.997293,-0.0735235,0.0735235,0.997293,-367.268,115.683)">
                <path d="M1344.56,280.332L1360.85,633.246L1328.26,633.246L1344.56,280.332Z" style="fill:rgb(1,59,0);"/>
            </g>
            <g transform="matrix(0.996056,-0.0887288,0.0887288,0.996056,-369.748,181.301)">
                <path d="M1847.7,259.072L1872.51,636.08L1822.9,636.08L1847.7,259.072Z" style="fill:rgb(1,59,0);"/>
            </g>
            <g transform="matrix(0.95024,-0.31152,0.31152,0.95024,-391.63,594.851)">
                <path d="M1786.05,264.742L1803.06,654.505L1769.04,654.505L1786.05,264.742Z" style="fill:rgb(1,59,0);"/>
            </g>
        </g>
    </g>
    <g id="back-rocks" serif:id="back rocks">
        <path d="M-65.393,739.43C-188.106,717.524 -277.571,650.126 -277.571,570.472C-277.571,473.083 -143.831,394.016 20.9,394.016C185.63,394.016 319.37,473.083 319.37,570.472C319.37,571.257 319.361,572.041 319.344,572.824C324.512,572.674 329.719,572.598 334.961,572.598C389.972,572.598 441.133,580.952 483.692,595.27C524.97,562.115 581.441,540.897 644.099,538.761C677.322,488.24 745.729,453.543 824.646,453.543C851.761,453.543 877.635,457.639 901.267,465.066C939.237,419.016 995.926,389.764 1059.21,389.764C1173.42,389.764 1266.14,485.026 1266.14,602.362C1266.14,610.931 1265.65,619.382 1264.69,627.687C1273.99,626.875 1283.46,626.457 1293.07,626.457C1323.64,626.457 1352.82,630.688 1379.51,638.368C1398.98,603.968 1435.63,574.33 1483.3,553.159C1480.32,537.791 1478.74,521.758 1478.74,505.276C1478.74,391.459 1554,299.055 1646.69,299.055C1729.51,299.055 1798.4,372.804 1812.15,469.684C1820.59,469.32 1829.14,469.134 1837.78,469.134C1983.67,469.134 2102.11,522.163 2102.11,587.48C2102.11,634.715 2040.17,675.523 1950.71,694.498C1950.71,694.731 1950.71,694.964 1950.71,695.197C1950.71,752.776 1904.76,803.951 1833.72,836.167C1823.97,879.062 1778.33,913.132 1720.15,921.288C1821.17,934.283 1898.02,998.751 1898.02,1076.22C1898.02,1163.05 1801.49,1233.55 1682.59,1233.55C1565.36,1233.55 1469.88,1165.03 1467.21,1079.89C1442.67,1091.04 1413.76,1097.48 1382.82,1097.48C1294.04,1097.48 1221.96,1044.45 1221.96,979.136C1221.96,972.073 1222.8,965.154 1224.41,958.431C1202.36,968.426 1176.55,974.176 1148.96,974.176C1115.99,974.176 1085.54,965.958 1061.03,952.096C1023.61,1019.72 945.313,1066.3 854.87,1066.3C829.052,1066.3 804.223,1062.51 781.053,1055.51C782.992,1064.99 784.004,1074.76 784.004,1084.73C784.004,1175.47 700.173,1249.14 596.917,1249.14C497.814,1249.14 416.605,1181.27 410.233,1095.59C384.014,1110.23 352.718,1118.74 319.122,1118.74C226.818,1118.74 151.878,1054.49 151.878,975.356C151.878,964.622 153.257,954.162 155.87,944.099C126.847,966.314 88.415,979.845 46.287,979.845C-44.062,979.845 -117.413,917.607 -117.413,840.947C-117.413,800.9 -97.395,764.788 -65.393,739.43ZM1563.77,862.478C1543.98,858.47 1525.12,853.226 1507.47,846.899C1500.2,860.258 1490.51,872.768 1478.76,884.159C1510.73,901.668 1533.56,927.698 1541.04,957.659C1573.08,937.243 1613.45,923.631 1657.91,919.922C1616.02,912.098 1581.53,890.677 1563.77,862.478ZM634.343,919.175C556.276,914.002 488.767,879.153 449.805,828.904C426.683,834.433 401.741,838.346 375.558,840.351C432.372,857.831 474.992,900.944 484.413,953.392C515.733,932.632 554.702,920.317 596.917,920.317C610.305,920.317 623.367,921.556 635.961,923.909C635.401,922.339 634.861,920.761 634.343,919.175ZM270.953,838.015C249.156,835.325 228.403,831.292 209.062,826.101C209.674,830.979 209.988,835.932 209.988,840.947C209.988,850.678 208.806,860.176 206.558,869.344C224.797,855.098 246.721,844.262 270.953,838.015Z"/>
        <g transform="matrix(1,0,0,1,-22.6772,1.41732)">
            <path d="M-65.393,739.43C-188.106,717.524 -277.571,650.126 -277.571,570.472C-277.571,473.083 -143.831,394.016 20.9,394.016C185.63,394.016 319.37,473.083 319.37,570.472C319.37,571.257 319.361,572.041 319.344,572.824C324.512,572.674 329.719,572.598 334.961,572.598C389.972,572.598 441.133,580.952 483.692,595.27C524.97,562.115 581.441,540.897 644.099,538.761C677.322,488.24 745.729,453.543 824.646,453.543C851.761,453.543 877.635,457.639 901.267,465.066C939.237,419.016 995.926,389.764 1059.21,389.764C1173.42,389.764 1266.14,485.026 1266.14,602.362C1266.14,610.931 1265.65,619.382 1264.69,627.687C1273.99,626.875 1283.46,626.457 1293.07,626.457C1323.64,626.457 1352.82,630.688 1379.51,638.368C1398.98,603.968 1435.63,574.33 1483.3,553.159C1480.32,537.791 1478.74,521.758 1478.74,505.276C1478.74,391.459 1554,299.055 1646.69,299.055C1729.51,299.055 1798.4,372.804 1812.15,469.684C1820.59,469.32 1829.14,469.134 1837.78,469.134C1983.67,469.134 2102.11,522.163 2102.11,587.48C2102.11,634.715 2040.17,675.523 1950.71,694.498C1950.71,694.731 1950.71,694.964 1950.71,695.197C1950.71,752.776 1904.76,803.951 1833.72,836.167C1823.97,879.062 1778.33,913.132 1720.15,921.288C1821.17,934.283 1898.02,998.751 1898.02,1076.22C1898.02,1163.05 1801.49,1233.55 1682.59,1233.55C1565.36,1233.55 1469.88,1165.03 1467.21,1079.89C1442.67,1091.04 1413.76,1097.48 1382.82,1097.48C1294.04,1097.48 1221.96,1044.45 1221.96,979.136C1221.96,972.073 1222.8,965.154 1224.41,958.431C1202.36,968.426 1176.55,974.176 1148.96,974.176C1115.99,974.176 1085.54,965.958 1061.03,952.096C1023.61,1019.72 945.313,1066.3 854.87,1066.3C829.052,1066.3 804.223,1062.51 781.053,1055.51C782.992,1064.99 784.004,1074.76 784.004,1084.73C784.004,1175.47 700.173,1249.14 596.917,1249.14C497.814,1249.14 416.605,1181.27 410.233,1095.59C384.014,1110.23 352.718,1118.74 319.122,1118.74C226.818,1118.74 151.878,1054.49 151.878,975.356C151.878,964.622 153.257,954.162 155.87,944.099C126.847,966.314 88.415,979.845 46.287,979.845C-44.062,979.845 -117.413,917.607 -117.413,840.947C-117.413,800.9 -97.395,764.788 -65.393,739.43ZM1563.77,862.478C1543.98,858.47 1525.12,853.226 1507.47,846.899C1500.2,860.258 1490.51,872.768 1478.76,884.159C1510.73,901.668 1533.56,927.698 1541.04,957.659C1573.08,937.243 1613.45,923.631 1657.91,919.922C1616.02,912.098 1581.53,890.677 1563.77,862.478ZM634.343,919.175C556.276,914.002 488.767,879.153 449.805,828.904C426.683,834.433 401.741,838.346 375.558,840.351C432.372,857.831 474.992,900.944 484.413,953.392C515.733,932.632 554.702,920.317 596.917,920.317C610.305,920.317 623.367,921.556 635.961,923.909C635.401,922.339 634.861,920.761 634.343,919.175ZM270.953,838.015C249.156,835.325 228.403,831.292 209.062,826.101C209.674,830.979 209.988,835.932 209.988,840.947C209.988,850.678 208.806,860.176 206.558,869.344C224.797,855.098 246.721,844.262 270.953,838.015Z" style="fill:rgb(32,32,32);"/>
        </g>
    </g>
    <g id="grass7" serif:id="grass" transform="matrix(1.08768,0,0,1,215.429,521.575)">
        <g transform="matrix(0.984644,-0.174576,0.174576,0.984644,-409.355,66.3496)">
            <path d="M252.508,199.545L272.35,670.096L232.665,670.096L252.508,199.545Z" style="fill:rgb(1,59,0);"/>
        </g>
        <g transform="matrix(0.978081,-0.208225,0.208225,0.978081,-420.597,95.5701)">
            <path d="M338.256,178.285L351.72,692.773L324.791,692.773L338.256,178.285Z" style="fill:rgb(1,59,0);"/>
        </g>
        <g transform="matrix(0.992966,0.118398,-0.118398,0.992966,-276.091,-32.0766)">
            <path d="M431.799,291.671L450.933,691.356L412.665,691.356L431.799,291.671Z" style="fill:rgb(1,59,0);"/>
        </g>
        <g transform="matrix(0.952671,0.304004,-0.304004,0.952671,-157.215,-122.815)">
            <path d="M534.555,242.065L554.398,776.395L514.713,776.395L534.555,242.065Z" style="fill:rgb(1,59,0);"/>
        </g>
        <g transform="matrix(0.970189,-0.242348,0.242348,0.970189,-418.925,187.821)">
            <path d="M659.28,185.372L676.287,650.254L642.272,650.254L659.28,185.372Z" style="fill:rgb(1,59,0);"/>
        </g>
        <g transform="matrix(1,0,0,1,-337.323,15.5906)">
            <path d="M796.051,152.773L805.264,671.513L786.839,671.513L796.051,152.773Z" style="fill:rgb(1,59,0);"/>
        </g>
        <g transform="matrix(1,0,0,1,-337.323,15.5906)">
            <path d="M856.996,227.891L864.791,536.868L849.201,536.868L856.996,227.891Z" style="fill:rgb(1,59,0);"/>
        </g>
        <g transform="matrix(0.989407,0.145167,-0.145167,0.989407,-266.771,-112.812)">
            <path d="M915.106,233.561L925.736,604.899L904.476,604.899L915.106,233.561Z" style="fill:rgb(1,59,0);"/>
        </g>
        <g transform="matrix(0.994954,-0.100332,0.100332,0.994954,-373.935,121.81)">
            <path d="M1037.7,199.545L1049.04,634.663L1026.37,634.663L1037.7,199.545Z" style="fill:rgb(1,59,0);"/>
        </g>
        <g transform="matrix(0.997162,-0.0752824,0.0752824,0.997162,-368.44,103.65)">
            <path d="M1152.51,229.309L1214.87,684.269L1090.15,684.269L1152.51,229.309Z" style="fill:rgb(1,59,0);"/>
        </g>
        <g transform="matrix(1,0,0,1,-337.323,15.5906)">
            <path d="M1279.36,219.387L1299.91,655.923L1258.81,655.923L1279.36,219.387Z" style="fill:rgb(1,59,0);"/>
        </g>
        <g transform="matrix(0.99743,0.0716515,-0.0716515,0.99743,-308.628,-70.5902)">
            <path d="M1215.58,192.458L1247.47,521.277L1183.69,521.277L1215.58,192.458Z" style="fill:rgb(1,59,0);"/>
        </g>
        <g transform="matrix(1,0,0,1,-337.323,15.5906)">
            <path d="M821.563,263.324L864.791,640.332L778.335,640.332L821.563,263.324Z" style="fill:rgb(1,59,0);"/>
        </g>
        <g transform="matrix(1,0,0,1,-337.323,15.5906)">
            <path d="M581.327,203.797L612.508,658.757L550.146,658.757L581.327,203.797Z" style="fill:rgb(1,59,0);"/>
        </g>
        <g transform="matrix(1,0,0,1,-337.323,15.5906)">
            <path d="M467.941,242.065L497.705,660.175L438.177,660.175L467.941,242.065Z" style="fill:rgb(1,59,0);"/>
        </g>
        <g transform="matrix(1,0,0,1,-337.323,15.5906)">
            <path d="M372.98,260.49L401.327,616.238L344.634,616.238L372.98,260.49Z" style="fill:rgb(1,59,0);"/>
        </g>
        <g transform="matrix(1,0,0,1,-337.323,15.5906)">
            <path d="M716.681,267.576L751.406,653.088L681.957,653.088L716.681,267.576Z" style="fill:rgb(1,59,0);"/>
        </g>
        <g transform="matrix(0.712623,-0.384054,0.463257,0.859586,-226.77,497.819)">
            <path d="M1083.77,259.072L1098.65,620.49L1068.89,620.49L1083.77,259.072Z" style="fill:rgb(1,59,0);"/>
        </g>
        <g transform="matrix(0.949849,0.312708,-0.312708,0.949849,-115.975,-392.906)">
            <path d="M1384.24,270.411L1430.3,701.277L1338.18,701.277L1384.24,270.411Z" style="fill:rgb(1,59,0);"/>
        </g>
        <g transform="matrix(0.91253,-0.40901,0.40901,0.91253,-364.226,692.819)">
            <path d="M1569.91,199.545L1590.46,603.482L1549.36,603.482L1569.91,199.545Z" style="fill:rgb(1,59,0);"/>
        </g>
        <g transform="matrix(0.975364,0.220601,-0.220601,0.975364,-210.139,-358.519)">
            <path d="M1738.57,154.191L1753.45,610.568L1723.69,610.568L1738.57,154.191Z" style="fill:rgb(1,59,0);"/>
        </g>
        <g transform="matrix(0.991199,-0.132378,0.132378,0.991199,-371.713,237.547)">
            <path d="M1652.11,181.12L1668.41,558.128L1635.82,558.128L1652.11,181.12Z" style="fill:rgb(1,59,0);"/>
        </g>
        <g transform="matrix(1,0,0,1,-337.323,15.5906)">
            <path d="M1611.01,205.214L1615.97,552.458L1606.05,552.458L1611.01,205.214Z" style="fill:rgb(1,59,0);"/>
        </g>
        <g transform="matrix(1,0,0,1,-337.323,15.5906)">
            <path d="M1532.35,161.277L1566.37,638.915L1498.34,638.915L1532.35,161.277Z" style="fill:rgb(1,59,0);"/>
        </g>
        <g transform="matrix(1,0,0,1,-337.323,15.5906)">
            <path d="M1431.01,206.631L1452.98,460.332L1409.04,460.332L1431.01,206.631Z" style="fill:rgb(1,59,0);"/>
        </g>
        <g transform="matrix(1,0,0,1,-337.323,15.5906)">
            <path d="M1465.74,256.238L1501.17,735.293L1430.3,735.293L1465.74,256.238Z" style="fill:rgb(1,59,0);"/>
        </g>
        <g transform="matrix(0.997293,-0.0735235,0.0735235,0.997293,-367.268,115.683)">
            <path d="M1344.56,280.332L1360.85,633.246L1328.26,633.246L1344.56,280.332Z" style="fill:rgb(1,59,0);"/>
        </g>
        <g transform="matrix(0.996056,-0.0887288,0.0887288,0.996056,-369.748,181.301)">
            <path d="M1847.7,259.072L1872.51,636.08L1822.9,636.08L1847.7,259.072Z" style="fill:rgb(1,59,0);"/>
        </g>
        <g transform="matrix(0.95024,-0.31152,0.31152,0.95024,-391.63,594.851)">
            <path d="M1786.05,264.742L1803.06,654.505L1769.04,654.505L1786.05,264.742Z" style="fill:rgb(1,59,0);"/>
        </g>
    </g>
    <g id="front-rocks" serif:id="front rocks" transform="matrix(1,0,0,1.11584,12,-101.861)">
        <g transform="matrix(1,0,0,1,51.0236,498.898)">
            <ellipse cx="894.555" cy="551.813" rx="197.008" ry="165.827" style="stroke:rgb(93,93,93);stroke-width:0.94px;"/>
        </g>
        <g transform="matrix(1,0,0,1,401.102,-114.803)">
            <ellipse cx="1150.38" cy="665.199" rx="160.866" ry="154.488" style="stroke:rgb(93,93,93);stroke-width:0.94px;"/>
        </g>
        <g transform="matrix(1,0,0,1,-155.906,490.394)">
            <ellipse cx="1631.56" cy="565.987" rx="194.173" ry="148.819" style="stroke:rgb(93,93,93);stroke-width:0.94px;"/>
        </g>
        <g transform="matrix(1,0,0,1,2.83465,24.0945)">
            <ellipse cx="1692.51" cy="938.034" rx="138.898" ry="129.685" style="stroke:rgb(93,93,93);stroke-width:0.94px;"/>
        </g>
        <g transform="matrix(1,0,0,1,31.1811,248.031)">
            <ellipse cx="1857.63" cy="786.38" rx="122.598" ry="149.528" style="stroke:rgb(93,93,93);stroke-width:0.94px;"/>
        </g>
        <g transform="matrix(1,0,0,1,31.1811,-15.5906)">
            <ellipse cx="1141.17" cy="955.75" rx="167.244" ry="161.575" style="stroke:rgb(93,93,93);stroke-width:0.94px;"/>
        </g>
        <g transform="matrix(1,0,0,1,-265.039,180)">
            <ellipse cx="706.051" cy="883.467" rx="178.583" ry="121.89" style="stroke:rgb(93,93,93);stroke-width:0.94px;"/>
        </g>
        <g transform="matrix(0.977698,0.210016,-0.210016,0.977698,545.79,-418.457)">
            <ellipse cx="402.744" cy="1044.33" rx="155.906" ry="105.591" style="stroke:rgb(93,93,93);stroke-width:0.92px;"/>
        </g>
        <g transform="matrix(1.22293,-0.285327,0.307757,1.31907,-611.262,-647.438)">
            <ellipse cx="402.744" cy="1044.33" rx="155.906" ry="105.591" style="stroke:rgb(93,93,93);stroke-width:0.74px;"/>
        </g>
        <g transform="matrix(1,0,0,1,38.2677,28.3465)">
            <ellipse cx="88.807" cy="957.876" rx="210.472" ry="146.693" style="stroke:rgb(93,93,93);stroke-width:0.94px;"/>
        </g>
        <g transform="matrix(0.693642,0,0,0.535545,500.359,264.608)">
            <ellipse cx="1857.63" cy="786.38" rx="122.598" ry="149.528" style="stroke:rgb(93,93,93);stroke-width:1.54px;"/>
        </g>
        <g transform="matrix(0.977698,0.210016,-0.210016,0.977698,514.608,-402.867)">
            <ellipse cx="402.744" cy="1044.33" rx="155.906" ry="105.591" style="fill:rgb(93,93,93);"/>
            <clipPath id="_clip1">
                <ellipse cx="402.744" cy="1044.33" rx="155.906" ry="105.591"/>
            </clipPath>
            <g clip-path="url(#_clip1)">
                <g transform="matrix(0.977698,-0.210016,0.210016,0.977698,-391.311,480.167)">
                    <ellipse cx="690.461" cy="1098.51" rx="140.315" ry="195.204" style="stroke:rgb(93,93,93);stroke-width:0.94px;"/>
                </g>
            </g>
            <ellipse cx="402.744" cy="1044.33" rx="155.906" ry="105.591" style="fill:none;stroke:rgb(93,93,93);stroke-width:0.92px;"/>
        </g>
    </g>
    <path d="M-81.153,1087.99C-94.873,1066.26 -102.579,1041.82 -102.579,1016C-102.579,925.659 -8.269,852.314 107.894,852.314C213.813,852.314 301.564,913.295 316.216,992.537C345.804,975.972 382.328,966.183 421.831,966.183C486.903,966.183 543.892,992.747 575.109,1032.4C597.398,957.843 646.066,906.086 702.461,906.086C735.725,906.086 766.302,924.094 790.362,954.167C825.737,922.427 873.661,902.923 926.398,902.923C949.656,902.923 971.978,906.716 992.7,913.68C1013.11,838.937 1077.27,784.31 1153.17,784.31C1245.47,784.31 1320.41,865.096 1320.41,964.601C1320.41,968.479 1320.3,972.328 1320.08,976.145C1355.15,946.523 1403.34,928.227 1456.48,928.227C1490.51,928.227 1522.5,935.729 1550.33,948.904C1563.86,883.774 1619.54,834.918 1686.08,834.918C1742.92,834.918 1791.83,870.561 1813.32,921.545C1830.19,909.646 1849.33,902.923 1869.63,902.923C1937.29,902.923 1992.22,977.685 1992.22,1069.77C1992.22,1075.93 1991.98,1082.01 1991.5,1087.99L3304.74,1087.99L3304.74,1883.99L-1011.26,1883.99L-1011.26,1087.99L-81.153,1087.99ZM1532.3,357.304C1621.09,357.304 1693.17,434.547 1693.17,529.688C1693.17,624.829 1621.09,702.072 1532.3,702.072C1443.52,702.072 1371.44,624.829 1371.44,529.688C1371.44,434.547 1443.52,357.304 1532.3,357.304ZM1788.13,581.878C1835.06,581.878 1873.17,621.916 1873.17,671.233C1873.17,720.549 1835.06,760.587 1788.13,760.587C1741.19,760.587 1703.09,720.549 1703.09,671.233C1703.09,621.916 1741.19,581.878 1788.13,581.878ZM150.991,446.581C256.22,419.186 356.214,466.584 374.149,552.36C392.085,638.136 321.213,730.017 215.984,757.412C110.754,784.808 10.76,737.41 -7.175,651.634C-25.11,565.858 45.762,473.977 150.991,446.581Z" style="fill:rgb(93,93,93);stroke:rgb(93,93,93);stroke-width:1px;"/>
</svg>
