<?xml version="1.0" encoding="UTF-8" standalone="no"?>
<!DOCTYPE svg PUBLIC "-//W3C//DTD SVG 1.1//EN" "http://www.w3.org/Graphics/SVG/1.1/DTD/svg11.dtd">
<svg width="100%" height="100%" viewBox="0 0 5000 7500" version="1.1" xmlns="http://www.w3.org/2000/svg" xmlns:xlink="http://www.w3.org/1999/xlink" xml:space="preserve" xmlns:serif="http://www.serif.com/" style="fill-rule:evenodd;clip-rule:evenodd;stroke-linejoin:round;stroke-miterlimit:2;">
    <g transform="matrix(1.26406,0,0,1.26406,858.518,-513.713)">
        <circle cx="1320.5" cy="830.635" r="290.754"/>
    </g>
    <g transform="matrix(1.26406,0,0,1.26406,859.576,5959.38)">
        <circle cx="1320.5" cy="830.635" r="290.754" style="fill:rgb(255,166,0);"/>
    </g>
    <g transform="matrix(1.23111,0,0,1.23111,878.513,-492.441)">
        <circle cx="1320.5" cy="830.635" r="290.754" style="fill:rgb(147,147,147);"/>
    </g>
    <g transform="matrix(1.23111,0,0,1.23111,1463.77,-262.516)">
        <circle cx="813.982" cy="827.805" r="41.738" style="fill:rgb(75,72,72);"/>
    </g>
    <g transform="matrix(1.23111,0,0,1.23111,1240.82,-506.375)">
        <circle cx="813.982" cy="827.805" r="41.738" style="fill:rgb(75,72,72);"/>
    </g>
    <g transform="matrix(1.23111,0,0,1.23111,1655.38,-394.897)">
        <circle cx="813.982" cy="827.805" r="41.738" style="fill:rgb(75,72,72);"/>
    </g>
    <g transform="matrix(1.23111,0,0,1.23111,1679.76,-635.272)">
        <circle cx="813.982" cy="827.805" r="41.738" style="fill:rgb(75,72,72);"/>
    </g>
    <g transform="matrix(1.23111,0,0,1.23111,1467.26,-687.528)">
        <circle cx="813.982" cy="827.805" r="41.738" style="fill:rgb(75,72,72);"/>
    </g>
    <g transform="matrix(1.23111,0,0,1.23111,935.31,5987.62)">
        <circle cx="1320.5" cy="830.635" r="290.754" style="fill:rgb(255,224,0);"/>
    </g>
</svg>
