<?xml version="1.0" encoding="UTF-8" standalone="no"?>
<!DOCTYPE svg PUBLIC "-//W3C//DTD SVG 1.1//EN" "http://www.w3.org/Graphics/SVG/1.1/DTD/svg11.dtd">
<svg width="100%" height="100%" viewBox="0 0 1920 1080" version="1.1" xmlns="http://www.w3.org/2000/svg" xmlns:xlink="http://www.w3.org/1999/xlink" xml:space="preserve" xmlns:serif="http://www.serif.com/" style="fill-rule:evenodd;clip-rule:evenodd;stroke-linejoin:round;stroke-miterlimit:2;">
    <path d="M-44.882,857.48L-49.134,857.48L-44.882,843.895L-44.882,802.205L-31.834,802.205L8.976,671.811L34.348,752.876L52.205,666.142L70.403,754.531L99.685,630.709L138.977,796.858L158.504,702.992L177.812,795.808L210.945,593.858L236.669,750.65L274.724,592.441L306.193,723.264L318.429,705.318L333.543,545.669L344.972,666.387L365.433,636.378L402.453,690.673L409.37,634.961L419.368,715.482L427.54,727.468L472.441,518.74L511.701,701.247L539.764,619.37L555.421,665.051L617.717,483.307L691.435,698.375L726.142,598.11L758.478,691.525L777.874,585.354L798.88,700.337L826.063,636.378L832.357,651.188L861.496,527.244L900.539,693.316L943.701,574.016L979.762,673.69L1003.23,598.11L1037.81,709.504L1077.64,578.268L1109.94,684.725L1176.85,505.984L1233.71,657.89L1252.68,609.449L1283.01,686.925L1324.25,568.346L1366.73,690.477L1374.57,660.472L1383.41,694.338L1404.33,591.024L1426.2,699.037L1468.82,518.74L1505.21,672.699L1512.76,637.795L1531.85,726.103L1563.07,571.181L1601.11,759.95C1602.16,760.115 1603.2,760.281 1604.24,760.447L1669.37,612.283L1707.89,699.899L1733.15,598.11L1769.2,743.345L1796.93,629.291L1804.27,659.461L1821.73,568.346L1853.93,736.283L1876.3,632.126L1889.35,692.886L1915.98,530.079L1960.5,802.205L1970.55,802.205L1970.55,1117.25L-44.882,1117.25L-44.882,857.48ZM1756.61,795.118L1755.97,795.118C1756.17,795.187 1756.36,795.256 1756.56,795.324L1756.61,795.118ZM687.874,708.661L687.846,708.661L687.859,708.705L687.874,708.661Z"/>
    <g transform="matrix(1,0,0,1,-9.92126,-2.83465)">
        <path d="M-44.882,857.48L-49.134,857.48L-44.882,843.895L-44.882,802.205L-31.834,802.205L8.976,671.811L34.348,752.876L52.205,666.142L70.403,754.531L99.685,630.709L138.977,796.858L158.504,702.992L177.812,795.808L210.945,593.858L236.669,750.65L274.724,592.441L306.193,723.264L318.429,705.318L333.543,545.669L344.972,666.387L365.433,636.378L402.453,690.673L409.37,634.961L419.368,715.482L427.54,727.468L472.441,518.74L511.701,701.247L539.764,619.37L555.421,665.051L617.717,483.307L691.435,698.375L726.142,598.11L758.478,691.525L777.874,585.354L798.88,700.337L826.063,636.378L832.357,651.188L861.496,527.244L900.539,693.316L943.701,574.016L979.762,673.69L1003.23,598.11L1037.81,709.504L1077.64,578.268L1109.94,684.725L1176.85,505.984L1233.71,657.89L1252.68,609.449L1283.01,686.925L1324.25,568.346L1366.73,690.477L1374.57,660.472L1383.41,694.338L1404.33,591.024L1426.2,699.037L1468.82,518.74L1505.21,672.699L1512.76,637.795L1531.85,726.103L1563.07,571.181L1601.11,759.95C1602.16,760.115 1603.2,760.281 1604.24,760.447L1669.37,612.283L1707.89,699.899L1733.15,598.11L1769.2,743.345L1796.93,629.291L1804.27,659.461L1821.73,568.346L1853.93,736.283L1876.3,632.126L1889.35,692.886L1915.98,530.079L1960.5,802.205L1970.55,802.205L1970.55,1117.25L-44.882,1117.25L-44.882,857.48ZM1756.61,795.118L1755.97,795.118C1756.17,795.187 1756.36,795.256 1756.56,795.324L1756.61,795.118ZM687.874,708.661L687.846,708.661L687.859,708.705L687.874,708.661Z" style="fill:rgb(88,125,113);"/>
    </g>
</svg>
