<?xml version="1.0" encoding="UTF-8" standalone="no"?>
<!DOCTYPE svg PUBLIC "-//W3C//DTD SVG 1.1//EN" "http://www.w3.org/Graphics/SVG/1.1/DTD/svg11.dtd">
<svg width="100%" height="100%" viewBox="0 0 1920 1080" version="1.1" xmlns="http://www.w3.org/2000/svg" xmlns:xlink="http://www.w3.org/1999/xlink" xml:space="preserve" xmlns:serif="http://www.serif.com/" style="fill-rule:evenodd;clip-rule:evenodd;stroke-linejoin:round;stroke-miterlimit:2;">
    <g transform="matrix(1,0,0,1,49.6063,-21.2598)">
        <path d="M81.341,638.813C116.983,624.286 147.179,607.188 170.416,588.189C176.371,583.32 181.869,578.326 186.885,573.218C291.566,532.259 453.015,505.984 634.016,505.984C767.395,505.984 890.157,520.252 987.41,544.15C1037.58,556.479 1080.97,571.371 1115.52,588.189C1118.32,589.554 1121.07,590.931 1123.75,592.321C1183.88,605.986 1252.04,613.701 1324.25,613.701C1371.4,613.701 1416.82,610.412 1459.41,604.326C1488.36,600.188 1516,594.758 1541.97,588.189C1573.83,580.134 1603.19,570.367 1629.42,559.172C1715.55,544.316 1816.84,535.748 1925.2,535.748C2238.09,535.748 2492.13,607.195 2492.13,695.197C2492.13,745.701 2408.46,790.753 2278.01,819.976L2278.01,1120.92L-78.996,1120.92L-78.996,680.54C-18.753,671.771 35.749,657.396 81.341,638.813Z"/>
    </g>
    <path d="M81.341,638.813C116.983,624.286 147.179,607.188 170.416,588.189C176.371,583.32 181.869,578.326 186.885,573.218C291.566,532.259 453.015,505.984 634.016,505.984C767.395,505.984 890.157,520.252 987.41,544.15C1037.58,556.479 1080.97,571.371 1115.52,588.189C1118.32,589.554 1121.07,590.931 1123.75,592.321C1183.88,605.986 1252.04,613.701 1324.25,613.701C1371.4,613.701 1416.82,610.412 1459.41,604.326C1488.36,600.188 1516,594.758 1541.97,588.189C1573.83,580.134 1603.19,570.367 1629.42,559.172C1715.55,544.316 1816.84,535.748 1925.2,535.748C2238.09,535.748 2492.13,607.195 2492.13,695.197C2492.13,745.701 2408.46,790.753 2278.01,819.976L2278.01,1120.92L-78.996,1120.92L-78.996,680.54C-18.753,671.771 35.749,657.396 81.341,638.813Z" style="fill:rgb(0,150,255);"/>
</svg>
